<svg width="45" height="34" viewBox="0 0 45 34" fill="none" xmlns="http://www.w3.org/2000/svg">
<path d="M43.5971 24.4543C43.5971 18.448 40.3597 15.123 34.1007 15.123H33.9928C35.2878 11.7981 39.4964 10.082 45 9.76025V0C30.7554 0.750792 22.8777 8.6877 22.8777 20.7003C22.8777 30.2461 27.4101 34 33.5612 34C39.7122 34 43.5971 30.3533 43.5971 24.4543ZM20.7194 24.4543C20.7194 18.448 17.482 15.123 11.223 15.123H11.1151C12.4101 11.7981 16.6187 10.082 22.1223 9.76025V0C7.8777 0.750792 0 8.6877 0 20.7003C0 30.2461 4.53237 34 10.6835 34C16.8345 34 20.7194 30.3533 20.7194 24.4543Z" fill="url(#paint0_linear_1420_29523)"/>
<defs>
<linearGradient id="paint0_linear_1420_29523" x1="40.4676" y1="2.43893e-06" x2="17.7892" y2="37.9493" gradientUnits="userSpaceOnUse">
<stop stop-color="#4C9AFF"/>
<stop offset="1" stop-color="#0052CC"/>
</linearGradient>
</defs>
</svg>
